<?xml version="1.0" encoding="UTF-8" standalone="no"?>
<!DOCTYPE svg PUBLIC "-//W3C//DTD SVG 1.1//EN"
 "http://www.w3.org/Graphics/SVG/1.1/DTD/svg11.dtd">
<!-- Generated by graphviz version 2.36.0 (20140111.2315)
 -->
<!-- Title: controllers_diagram Pages: 1 -->
<svg width="724pt" height="596pt"
 viewBox="0.00 0.00 724.00 596.00" xmlns="http://www.w3.org/2000/svg" xmlns:xlink="http://www.w3.org/1999/xlink">
<g id="graph0" class="graph" transform="scale(1 1) rotate(0) translate(4 592)">
<title>controllers_diagram</title>
<polygon fill="none" stroke="none" points="-4,4 -4,-592 720,-592 720,4 -4,4"/>
<!-- _diagram_info -->
<g id="node1" class="node"><title>_diagram_info</title>
<text text-anchor="start" x="382" y="-80.6" font-family="Times,serif" font-size="13.00">Controllers diagram</text>
<text text-anchor="start" x="382" y="-66.6" font-family="Times,serif" font-size="13.00">Date: Sep 13 2016 &#45; 20:56</text>
<text text-anchor="start" x="382" y="-52.6" font-family="Times,serif" font-size="13.00">Migration version: 20160913002103</text>
<text text-anchor="start" x="382" y="-38.6" font-family="Times,serif" font-size="13.00">Generated by RailRoady 1.5.1</text>
<text text-anchor="start" x="382" y="-24.6" font-family="Times,serif" font-size="13.00">http://railroady.prestonlee.com</text>
</g>
<!-- Users::RegistrationsController -->
<g id="node2" class="node"><title>Users::RegistrationsController</title>
<path fill="none" stroke="black" d="M46,-0.5C46,-0.5 204,-0.5 204,-0.5 210,-0.5 216,-6.5 216,-12.5 216,-12.5 216,-81.5 216,-81.5 216,-87.5 210,-93.5 204,-93.5 204,-93.5 46,-93.5 46,-93.5 40,-93.5 34,-87.5 34,-81.5 34,-81.5 34,-12.5 34,-12.5 34,-6.5 40,-0.5 46,-0.5"/>
<text text-anchor="middle" x="125" y="-78.3" font-family="Times,serif" font-size="14.00">Users::RegistrationsController</text>
<polyline fill="none" stroke="black" points="34,-70.5 216,-70.5 "/>
<polyline fill="none" stroke="black" points="34,-46.5 216,-46.5 "/>
<text text-anchor="start" x="42" y="-31.3" font-family="Times,serif" font-size="14.00">configure_sign_up_params</text>
<polyline fill="none" stroke="black" points="34,-23.5 216,-23.5 "/>
<text text-anchor="start" x="42" y="-8.3" font-family="Times,serif" font-size="14.00">_layout</text>
</g>
<!-- Users::UnlocksController -->
<g id="node3" class="node"><title>Users::UnlocksController</title>
<path fill="none" stroke="black" d="M63,-459.5C63,-459.5 194,-459.5 194,-459.5 200,-459.5 206,-465.5 206,-471.5 206,-471.5 206,-541.5 206,-541.5 206,-547.5 200,-553.5 194,-553.5 194,-553.5 63,-553.5 63,-553.5 57,-553.5 51,-547.5 51,-541.5 51,-541.5 51,-471.5 51,-471.5 51,-465.5 57,-459.5 63,-459.5"/>
<text text-anchor="middle" x="128.5" y="-538.3" font-family="Times,serif" font-size="14.00">Users::UnlocksController</text>
<polyline fill="none" stroke="black" points="51,-530.5 206,-530.5 "/>
<polyline fill="none" stroke="black" points="51,-506.5 206,-506.5 "/>
<polyline fill="none" stroke="black" points="51,-482.5 206,-482.5 "/>
<text text-anchor="start" x="59" y="-467.3" font-family="Times,serif" font-size="14.00">_layout</text>
</g>
<!-- Users::OmniauthCallbacksController -->
<g id="node4" class="node"><title>Users::OmniauthCallbacksController</title>
<path fill="none" stroke="black" d="M437,-391.5C437,-391.5 631,-391.5 631,-391.5 637,-391.5 643,-397.5 643,-403.5 643,-403.5 643,-473.5 643,-473.5 643,-479.5 637,-485.5 631,-485.5 631,-485.5 437,-485.5 437,-485.5 431,-485.5 425,-479.5 425,-473.5 425,-473.5 425,-403.5 425,-403.5 425,-397.5 431,-391.5 437,-391.5"/>
<text text-anchor="middle" x="534" y="-470.3" font-family="Times,serif" font-size="14.00">Users::OmniauthCallbacksController</text>
<polyline fill="none" stroke="black" points="425,-462.5 643,-462.5 "/>
<polyline fill="none" stroke="black" points="425,-438.5 643,-438.5 "/>
<polyline fill="none" stroke="black" points="425,-414.5 643,-414.5 "/>
<text text-anchor="start" x="433" y="-399.3" font-family="Times,serif" font-size="14.00">_layout</text>
</g>
<!-- Users::SessionsController -->
<g id="node5" class="node"><title>Users::SessionsController</title>
<path fill="none" stroke="black" d="M539,-272.5C539,-272.5 676,-272.5 676,-272.5 682,-272.5 688,-278.5 688,-284.5 688,-284.5 688,-353.5 688,-353.5 688,-359.5 682,-365.5 676,-365.5 676,-365.5 539,-365.5 539,-365.5 533,-365.5 527,-359.5 527,-353.5 527,-353.5 527,-284.5 527,-284.5 527,-278.5 533,-272.5 539,-272.5"/>
<text text-anchor="middle" x="607.5" y="-350.3" font-family="Times,serif" font-size="14.00">Users::SessionsController</text>
<polyline fill="none" stroke="black" points="527,-342.5 688,-342.5 "/>
<text text-anchor="start" x="535" y="-327.3" font-family="Times,serif" font-size="14.00">configure_sign_in_params</text>
<polyline fill="none" stroke="black" points="527,-319.5 688,-319.5 "/>
<polyline fill="none" stroke="black" points="527,-295.5 688,-295.5 "/>
<text text-anchor="start" x="535" y="-280.3" font-family="Times,serif" font-size="14.00">_layout</text>
</g>
<!-- Users::ConfirmationsController -->
<g id="node6" class="node"><title>Users::ConfirmationsController</title>
<path fill="none" stroke="black" d="M539,-136.5C539,-136.5 704,-136.5 704,-136.5 710,-136.5 716,-142.5 716,-148.5 716,-148.5 716,-218.5 716,-218.5 716,-224.5 710,-230.5 704,-230.5 704,-230.5 539,-230.5 539,-230.5 533,-230.5 527,-224.5 527,-218.5 527,-218.5 527,-148.5 527,-148.5 527,-142.5 533,-136.5 539,-136.5"/>
<text text-anchor="middle" x="621.5" y="-215.3" font-family="Times,serif" font-size="14.00">Users::ConfirmationsController</text>
<polyline fill="none" stroke="black" points="527,-207.5 716,-207.5 "/>
<polyline fill="none" stroke="black" points="527,-183.5 716,-183.5 "/>
<polyline fill="none" stroke="black" points="527,-159.5 716,-159.5 "/>
<text text-anchor="start" x="535" y="-144.3" font-family="Times,serif" font-size="14.00">_layout</text>
</g>
<!-- Users::PasswordsController -->
<g id="node7" class="node"><title>Users::PasswordsController</title>
<path fill="none" stroke="black" d="M12,-323.5C12,-323.5 155,-323.5 155,-323.5 161,-323.5 167,-329.5 167,-335.5 167,-335.5 167,-405.5 167,-405.5 167,-411.5 161,-417.5 155,-417.5 155,-417.5 12,-417.5 12,-417.5 6,-417.5 -2.84217e-14,-411.5 -2.84217e-14,-405.5 -2.84217e-14,-405.5 -2.84217e-14,-335.5 -2.84217e-14,-335.5 -2.84217e-14,-329.5 6,-323.5 12,-323.5"/>
<text text-anchor="middle" x="83.5" y="-402.3" font-family="Times,serif" font-size="14.00">Users::PasswordsController</text>
<polyline fill="none" stroke="black" points="-2.84217e-14,-394.5 167,-394.5 "/>
<polyline fill="none" stroke="black" points="-2.84217e-14,-370.5 167,-370.5 "/>
<polyline fill="none" stroke="black" points="-2.84217e-14,-346.5 167,-346.5 "/>
<text text-anchor="start" x="8" y="-331.3" font-family="Times,serif" font-size="14.00">_layout</text>
</g>
<!-- ProductsController -->
<g id="node8" class="node"><title>ProductsController</title>
<path fill="none" stroke="black" d="M386,-136.5C386,-136.5 481,-136.5 481,-136.5 487,-136.5 493,-142.5 493,-148.5 493,-148.5 493,-337.5 493,-337.5 493,-343.5 487,-349.5 481,-349.5 481,-349.5 386,-349.5 386,-349.5 380,-349.5 374,-343.5 374,-337.5 374,-337.5 374,-148.5 374,-148.5 374,-142.5 380,-136.5 386,-136.5"/>
<text text-anchor="middle" x="433.5" y="-334.3" font-family="Times,serif" font-size="14.00">ProductsController</text>
<polyline fill="none" stroke="black" points="374,-326.5 493,-326.5 "/>
<text text-anchor="start" x="382" y="-311.3" font-family="Times,serif" font-size="14.00">create</text>
<text text-anchor="start" x="382" y="-296.3" font-family="Times,serif" font-size="14.00">destroy</text>
<text text-anchor="start" x="382" y="-281.3" font-family="Times,serif" font-size="14.00">edit</text>
<text text-anchor="start" x="382" y="-266.3" font-family="Times,serif" font-size="14.00">index</text>
<text text-anchor="start" x="382" y="-251.3" font-family="Times,serif" font-size="14.00">new</text>
<text text-anchor="start" x="382" y="-236.3" font-family="Times,serif" font-size="14.00">show</text>
<text text-anchor="start" x="382" y="-221.3" font-family="Times,serif" font-size="14.00">update</text>
<polyline fill="none" stroke="black" points="374,-213.5 493,-213.5 "/>
<polyline fill="none" stroke="black" points="374,-189.5 493,-189.5 "/>
<text text-anchor="start" x="382" y="-174.3" font-family="Times,serif" font-size="14.00">_layout</text>
<text text-anchor="start" x="382" y="-159.3" font-family="Times,serif" font-size="14.00">product_params</text>
<text text-anchor="start" x="382" y="-144.3" font-family="Times,serif" font-size="14.00">set_product</text>
</g>
<!-- BusinessesController -->
<g id="node9" class="node"><title>BusinessesController</title>
<path fill="none" stroke="black" d="M216,-119.5C216,-119.5 323,-119.5 323,-119.5 329,-119.5 335,-125.5 335,-131.5 335,-131.5 335,-320.5 335,-320.5 335,-326.5 329,-332.5 323,-332.5 323,-332.5 216,-332.5 216,-332.5 210,-332.5 204,-326.5 204,-320.5 204,-320.5 204,-131.5 204,-131.5 204,-125.5 210,-119.5 216,-119.5"/>
<text text-anchor="middle" x="269.5" y="-317.3" font-family="Times,serif" font-size="14.00">BusinessesController</text>
<polyline fill="none" stroke="black" points="204,-309.5 335,-309.5 "/>
<text text-anchor="start" x="212" y="-294.3" font-family="Times,serif" font-size="14.00">create</text>
<text text-anchor="start" x="212" y="-279.3" font-family="Times,serif" font-size="14.00">destroy</text>
<text text-anchor="start" x="212" y="-264.3" font-family="Times,serif" font-size="14.00">edit</text>
<text text-anchor="start" x="212" y="-249.3" font-family="Times,serif" font-size="14.00">index</text>
<text text-anchor="start" x="212" y="-234.3" font-family="Times,serif" font-size="14.00">new</text>
<text text-anchor="start" x="212" y="-219.3" font-family="Times,serif" font-size="14.00">show</text>
<text text-anchor="start" x="212" y="-204.3" font-family="Times,serif" font-size="14.00">update</text>
<polyline fill="none" stroke="black" points="204,-196.5 335,-196.5 "/>
<polyline fill="none" stroke="black" points="204,-172.5 335,-172.5 "/>
<text text-anchor="start" x="212" y="-157.3" font-family="Times,serif" font-size="14.00">_layout</text>
<text text-anchor="start" x="212" y="-142.3" font-family="Times,serif" font-size="14.00">business_params</text>
<text text-anchor="start" x="212" y="-127.3" font-family="Times,serif" font-size="14.00">set_business</text>
</g>
<!-- ApplicationController -->
<g id="node10" class="node"><title>ApplicationController</title>
<path fill="none" stroke="black" d="M46,-204.5C46,-204.5 158,-204.5 158,-204.5 164,-204.5 170,-210.5 170,-216.5 170,-216.5 170,-285.5 170,-285.5 170,-291.5 164,-297.5 158,-297.5 158,-297.5 46,-297.5 46,-297.5 40,-297.5 34,-291.5 34,-285.5 34,-285.5 34,-216.5 34,-216.5 34,-210.5 40,-204.5 46,-204.5"/>
<text text-anchor="middle" x="102" y="-282.3" font-family="Times,serif" font-size="14.00">ApplicationController</text>
<polyline fill="none" stroke="black" points="34,-274.5 170,-274.5 "/>
<text text-anchor="start" x="42" y="-259.3" font-family="Times,serif" font-size="14.00">set_cat</text>
<polyline fill="none" stroke="black" points="34,-251.5 170,-251.5 "/>
<polyline fill="none" stroke="black" points="34,-227.5 170,-227.5 "/>
<text text-anchor="start" x="42" y="-212.3" font-family="Times,serif" font-size="14.00">_layout</text>
</g>
<!-- UsersController -->
<g id="node11" class="node"><title>UsersController</title>
<path fill="none" stroke="black" d="M250,-374.5C250,-374.5 329,-374.5 329,-374.5 335,-374.5 341,-380.5 341,-386.5 341,-386.5 341,-575.5 341,-575.5 341,-581.5 335,-587.5 329,-587.5 329,-587.5 250,-587.5 250,-587.5 244,-587.5 238,-581.5 238,-575.5 238,-575.5 238,-386.5 238,-386.5 238,-380.5 244,-374.5 250,-374.5"/>
<text text-anchor="middle" x="289.5" y="-572.3" font-family="Times,serif" font-size="14.00">UsersController</text>
<polyline fill="none" stroke="black" points="238,-564.5 341,-564.5 "/>
<text text-anchor="start" x="246" y="-549.3" font-family="Times,serif" font-size="14.00">create</text>
<text text-anchor="start" x="246" y="-534.3" font-family="Times,serif" font-size="14.00">destroy</text>
<text text-anchor="start" x="246" y="-519.3" font-family="Times,serif" font-size="14.00">edit</text>
<text text-anchor="start" x="246" y="-504.3" font-family="Times,serif" font-size="14.00">index</text>
<text text-anchor="start" x="246" y="-489.3" font-family="Times,serif" font-size="14.00">new</text>
<text text-anchor="start" x="246" y="-474.3" font-family="Times,serif" font-size="14.00">show</text>
<text text-anchor="start" x="246" y="-459.3" font-family="Times,serif" font-size="14.00">update</text>
<polyline fill="none" stroke="black" points="238,-451.5 341,-451.5 "/>
<polyline fill="none" stroke="black" points="238,-427.5 341,-427.5 "/>
<text text-anchor="start" x="246" y="-412.3" font-family="Times,serif" font-size="14.00">_layout</text>
<text text-anchor="start" x="246" y="-397.3" font-family="Times,serif" font-size="14.00">set_user</text>
<text text-anchor="start" x="246" y="-382.3" font-family="Times,serif" font-size="14.00">user_params</text>
</g>
</g>
</svg>
