<?xml version="1.0" encoding="UTF-8" standalone="no"?>
<!DOCTYPE svg PUBLIC "-//W3C//DTD SVG 1.1//EN"
 "http://www.w3.org/Graphics/SVG/1.1/DTD/svg11.dtd">
<!-- Generated by graphviz version 2.36.0 (20140111.2315)
 -->
<!-- Title: controllers_diagram Pages: 1 -->
<svg width="677pt" height="615pt"
 viewBox="0.00 0.00 677.00 615.00" xmlns="http://www.w3.org/2000/svg" xmlns:xlink="http://www.w3.org/1999/xlink">
<g id="graph0" class="graph" transform="scale(1 1) rotate(0) translate(4 611)">
<title>controllers_diagram</title>
<polygon fill="none" stroke="none" points="-4,4 -4,-611 673,-611 673,4 -4,4"/>
<!-- _diagram_info -->
<g id="node1" class="node"><title>_diagram_info</title>
<text text-anchor="start" x="184" y="-463.6" font-family="Times,serif" font-size="13.00">Controllers diagram</text>
<text text-anchor="start" x="184" y="-449.6" font-family="Times,serif" font-size="13.00">Date: Sep 07 2016 &#45; 17:35</text>
<text text-anchor="start" x="184" y="-435.6" font-family="Times,serif" font-size="13.00">Migration version: 20160907202830</text>
<text text-anchor="start" x="184" y="-421.6" font-family="Times,serif" font-size="13.00">Generated by RailRoady 1.5.1</text>
<text text-anchor="start" x="184" y="-407.6" font-family="Times,serif" font-size="13.00">http://railroady.prestonlee.com</text>
</g>
<!-- Users::RegistrationsController -->
<g id="node2" class="node"><title>Users::RegistrationsController</title>
<path fill="none" stroke="black" d="M348,-32.5C348,-32.5 506,-32.5 506,-32.5 512,-32.5 518,-38.5 518,-44.5 518,-44.5 518,-113.5 518,-113.5 518,-119.5 512,-125.5 506,-125.5 506,-125.5 348,-125.5 348,-125.5 342,-125.5 336,-119.5 336,-113.5 336,-113.5 336,-44.5 336,-44.5 336,-38.5 342,-32.5 348,-32.5"/>
<text text-anchor="middle" x="427" y="-110.3" font-family="Times,serif" font-size="14.00">Users::RegistrationsController</text>
<polyline fill="none" stroke="black" points="336,-102.5 518,-102.5 "/>
<text text-anchor="start" x="344" y="-87.3" font-family="Times,serif" font-size="14.00">configure_sign_up_params</text>
<polyline fill="none" stroke="black" points="336,-79.5 518,-79.5 "/>
<polyline fill="none" stroke="black" points="336,-55.5 518,-55.5 "/>
<text text-anchor="start" x="344" y="-40.3" font-family="Times,serif" font-size="14.00">_layout</text>
</g>
<!-- Users::UnlocksController -->
<g id="node3" class="node"><title>Users::UnlocksController</title>
<path fill="none" stroke="black" d="M44,-512.5C44,-512.5 175,-512.5 175,-512.5 181,-512.5 187,-518.5 187,-524.5 187,-524.5 187,-594.5 187,-594.5 187,-600.5 181,-606.5 175,-606.5 175,-606.5 44,-606.5 44,-606.5 38,-606.5 32,-600.5 32,-594.5 32,-594.5 32,-524.5 32,-524.5 32,-518.5 38,-512.5 44,-512.5"/>
<text text-anchor="middle" x="109.5" y="-591.3" font-family="Times,serif" font-size="14.00">Users::UnlocksController</text>
<polyline fill="none" stroke="black" points="32,-583.5 187,-583.5 "/>
<polyline fill="none" stroke="black" points="32,-559.5 187,-559.5 "/>
<polyline fill="none" stroke="black" points="32,-535.5 187,-535.5 "/>
<text text-anchor="start" x="40" y="-520.3" font-family="Times,serif" font-size="14.00">_layout</text>
</g>
<!-- Users::OmniauthCallbacksController -->
<g id="node4" class="node"><title>Users::OmniauthCallbacksController</title>
<path fill="none" stroke="black" d="M428,-400.5C428,-400.5 622,-400.5 622,-400.5 628,-400.5 634,-406.5 634,-412.5 634,-412.5 634,-482.5 634,-482.5 634,-488.5 628,-494.5 622,-494.5 622,-494.5 428,-494.5 428,-494.5 422,-494.5 416,-488.5 416,-482.5 416,-482.5 416,-412.5 416,-412.5 416,-406.5 422,-400.5 428,-400.5"/>
<text text-anchor="middle" x="525" y="-479.3" font-family="Times,serif" font-size="14.00">Users::OmniauthCallbacksController</text>
<polyline fill="none" stroke="black" points="416,-471.5 634,-471.5 "/>
<polyline fill="none" stroke="black" points="416,-447.5 634,-447.5 "/>
<polyline fill="none" stroke="black" points="416,-423.5 634,-423.5 "/>
<text text-anchor="start" x="424" y="-408.3" font-family="Times,serif" font-size="14.00">_layout</text>
</g>
<!-- Users::SessionsController -->
<g id="node5" class="node"><title>Users::SessionsController</title>
<path fill="none" stroke="black" d="M28,-0.5C28,-0.5 165,-0.5 165,-0.5 171,-0.5 177,-6.5 177,-12.5 177,-12.5 177,-81.5 177,-81.5 177,-87.5 171,-93.5 165,-93.5 165,-93.5 28,-93.5 28,-93.5 22,-93.5 16,-87.5 16,-81.5 16,-81.5 16,-12.5 16,-12.5 16,-6.5 22,-0.5 28,-0.5"/>
<text text-anchor="middle" x="96.5" y="-78.3" font-family="Times,serif" font-size="14.00">Users::SessionsController</text>
<polyline fill="none" stroke="black" points="16,-70.5 177,-70.5 "/>
<text text-anchor="start" x="24" y="-55.3" font-family="Times,serif" font-size="14.00">configure_sign_in_params</text>
<polyline fill="none" stroke="black" points="16,-47.5 177,-47.5 "/>
<polyline fill="none" stroke="black" points="16,-23.5 177,-23.5 "/>
<text text-anchor="start" x="24" y="-8.3" font-family="Times,serif" font-size="14.00">_layout</text>
</g>
<!-- Users::ConfirmationsController -->
<g id="node6" class="node"><title>Users::ConfirmationsController</title>
<path fill="none" stroke="black" d="M492,-160.5C492,-160.5 657,-160.5 657,-160.5 663,-160.5 669,-166.5 669,-172.5 669,-172.5 669,-242.5 669,-242.5 669,-248.5 663,-254.5 657,-254.5 657,-254.5 492,-254.5 492,-254.5 486,-254.5 480,-248.5 480,-242.5 480,-242.5 480,-172.5 480,-172.5 480,-166.5 486,-160.5 492,-160.5"/>
<text text-anchor="middle" x="574.5" y="-239.3" font-family="Times,serif" font-size="14.00">Users::ConfirmationsController</text>
<polyline fill="none" stroke="black" points="480,-231.5 669,-231.5 "/>
<polyline fill="none" stroke="black" points="480,-207.5 669,-207.5 "/>
<polyline fill="none" stroke="black" points="480,-183.5 669,-183.5 "/>
<text text-anchor="start" x="488" y="-168.3" font-family="Times,serif" font-size="14.00">_layout</text>
</g>
<!-- Users::PasswordsController -->
<g id="node7" class="node"><title>Users::PasswordsController</title>
<path fill="none" stroke="black" d="M236,-512.5C236,-512.5 379,-512.5 379,-512.5 385,-512.5 391,-518.5 391,-524.5 391,-524.5 391,-594.5 391,-594.5 391,-600.5 385,-606.5 379,-606.5 379,-606.5 236,-606.5 236,-606.5 230,-606.5 224,-600.5 224,-594.5 224,-594.5 224,-524.5 224,-524.5 224,-518.5 230,-512.5 236,-512.5"/>
<text text-anchor="middle" x="307.5" y="-591.3" font-family="Times,serif" font-size="14.00">Users::PasswordsController</text>
<polyline fill="none" stroke="black" points="224,-583.5 391,-583.5 "/>
<polyline fill="none" stroke="black" points="224,-559.5 391,-559.5 "/>
<polyline fill="none" stroke="black" points="224,-535.5 391,-535.5 "/>
<text text-anchor="start" x="232" y="-520.3" font-family="Times,serif" font-size="14.00">_layout</text>
</g>
<!-- ProductsController -->
<g id="node8" class="node"><title>ProductsController</title>
<path fill="none" stroke="black" d="M348,-160.5C348,-160.5 443,-160.5 443,-160.5 449,-160.5 455,-166.5 455,-172.5 455,-172.5 455,-361.5 455,-361.5 455,-367.5 449,-373.5 443,-373.5 443,-373.5 348,-373.5 348,-373.5 342,-373.5 336,-367.5 336,-361.5 336,-361.5 336,-172.5 336,-172.5 336,-166.5 342,-160.5 348,-160.5"/>
<text text-anchor="middle" x="395.5" y="-358.3" font-family="Times,serif" font-size="14.00">ProductsController</text>
<polyline fill="none" stroke="black" points="336,-350.5 455,-350.5 "/>
<text text-anchor="start" x="344" y="-335.3" font-family="Times,serif" font-size="14.00">create</text>
<text text-anchor="start" x="344" y="-320.3" font-family="Times,serif" font-size="14.00">destroy</text>
<text text-anchor="start" x="344" y="-305.3" font-family="Times,serif" font-size="14.00">edit</text>
<text text-anchor="start" x="344" y="-290.3" font-family="Times,serif" font-size="14.00">index</text>
<text text-anchor="start" x="344" y="-275.3" font-family="Times,serif" font-size="14.00">new</text>
<text text-anchor="start" x="344" y="-260.3" font-family="Times,serif" font-size="14.00">show</text>
<text text-anchor="start" x="344" y="-245.3" font-family="Times,serif" font-size="14.00">update</text>
<polyline fill="none" stroke="black" points="336,-237.5 455,-237.5 "/>
<polyline fill="none" stroke="black" points="336,-213.5 455,-213.5 "/>
<text text-anchor="start" x="344" y="-198.3" font-family="Times,serif" font-size="14.00">_layout</text>
<text text-anchor="start" x="344" y="-183.3" font-family="Times,serif" font-size="14.00">product_params</text>
<text text-anchor="start" x="344" y="-168.3" font-family="Times,serif" font-size="14.00">set_product</text>
</g>
<!-- BusinessesController -->
<g id="node9" class="node"><title>BusinessesController</title>
<path fill="none" stroke="black" d="M188,-128.5C188,-128.5 295,-128.5 295,-128.5 301,-128.5 307,-134.5 307,-140.5 307,-140.5 307,-329.5 307,-329.5 307,-335.5 301,-341.5 295,-341.5 295,-341.5 188,-341.5 188,-341.5 182,-341.5 176,-335.5 176,-329.5 176,-329.5 176,-140.5 176,-140.5 176,-134.5 182,-128.5 188,-128.5"/>
<text text-anchor="middle" x="241.5" y="-326.3" font-family="Times,serif" font-size="14.00">BusinessesController</text>
<polyline fill="none" stroke="black" points="176,-318.5 307,-318.5 "/>
<text text-anchor="start" x="184" y="-303.3" font-family="Times,serif" font-size="14.00">create</text>
<text text-anchor="start" x="184" y="-288.3" font-family="Times,serif" font-size="14.00">destroy</text>
<text text-anchor="start" x="184" y="-273.3" font-family="Times,serif" font-size="14.00">edit</text>
<text text-anchor="start" x="184" y="-258.3" font-family="Times,serif" font-size="14.00">index</text>
<text text-anchor="start" x="184" y="-243.3" font-family="Times,serif" font-size="14.00">new</text>
<text text-anchor="start" x="184" y="-228.3" font-family="Times,serif" font-size="14.00">show</text>
<text text-anchor="start" x="184" y="-213.3" font-family="Times,serif" font-size="14.00">update</text>
<polyline fill="none" stroke="black" points="176,-205.5 307,-205.5 "/>
<polyline fill="none" stroke="black" points="176,-181.5 307,-181.5 "/>
<text text-anchor="start" x="184" y="-166.3" font-family="Times,serif" font-size="14.00">_layout</text>
<text text-anchor="start" x="184" y="-151.3" font-family="Times,serif" font-size="14.00">business_params</text>
<text text-anchor="start" x="184" y="-136.3" font-family="Times,serif" font-size="14.00">set_business</text>
</g>
<!-- ApplicationController -->
<g id="node10" class="node"><title>ApplicationController</title>
<path fill="none" stroke="black" d="M12,-384.5C12,-384.5 124,-384.5 124,-384.5 130,-384.5 136,-390.5 136,-396.5 136,-396.5 136,-465.5 136,-465.5 136,-471.5 130,-477.5 124,-477.5 124,-477.5 12,-477.5 12,-477.5 6,-477.5 -2.84217e-14,-471.5 -2.84217e-14,-465.5 -2.84217e-14,-465.5 -2.84217e-14,-396.5 -2.84217e-14,-396.5 -2.84217e-14,-390.5 6,-384.5 12,-384.5"/>
<text text-anchor="middle" x="68" y="-462.3" font-family="Times,serif" font-size="14.00">ApplicationController</text>
<polyline fill="none" stroke="black" points="-2.84217e-14,-454.5 136,-454.5 "/>
<text text-anchor="start" x="8" y="-439.3" font-family="Times,serif" font-size="14.00">set_cat</text>
<polyline fill="none" stroke="black" points="-2.84217e-14,-431.5 136,-431.5 "/>
<polyline fill="none" stroke="black" points="-2.84217e-14,-407.5 136,-407.5 "/>
<text text-anchor="start" x="8" y="-392.3" font-family="Times,serif" font-size="14.00">_layout</text>
</g>
</g>
</svg>
