<?xml version="1.0" encoding="UTF-8" standalone="no"?>
<!DOCTYPE svg PUBLIC "-//W3C//DTD SVG 1.1//EN"
 "http://www.w3.org/Graphics/SVG/1.1/DTD/svg11.dtd">
<!-- Generated by graphviz version 2.36.0 (20140111.2315)
 -->
<!-- Title: models_diagram Pages: 1 -->
<svg width="797pt" height="686pt"
 viewBox="0.00 0.00 797.00 686.00" xmlns="http://www.w3.org/2000/svg" xmlns:xlink="http://www.w3.org/1999/xlink">
<g id="graph0" class="graph" transform="scale(1 1) rotate(0) translate(4 682)">
<title>models_diagram</title>
<polygon fill="none" stroke="none" points="-4,4 -4,-682 793,-682 793,4 -4,4"/>
<!-- _diagram_info -->
<g id="node1" class="node"><title>_diagram_info</title>
<text text-anchor="start" x="7" y="-566.6" font-family="Times,serif" font-size="13.00">Models diagram</text>
<text text-anchor="start" x="7" y="-552.6" font-family="Times,serif" font-size="13.00">Date: Sep 13 2016 &#45; 20:56</text>
<text text-anchor="start" x="7" y="-538.6" font-family="Times,serif" font-size="13.00">Migration version: 20160913002103</text>
<text text-anchor="start" x="7" y="-524.6" font-family="Times,serif" font-size="13.00">Generated by RailRoady 1.5.1</text>
<text text-anchor="start" x="7" y="-510.6" font-family="Times,serif" font-size="13.00">http://railroady.prestonlee.com</text>
</g>
<!-- ApplicationRecord -->
<g id="node2" class="node"><title>ApplicationRecord</title>
<ellipse fill="none" stroke="black" cx="308" cy="-542" rx="77.0154" ry="18"/>
<text text-anchor="middle" x="308" y="-538.3" font-family="Times,serif" font-size="14.00">ApplicationRecord</text>
</g>
<!-- Category -->
<g id="node3" class="node"><title>Category</title>
<path fill="none" stroke="black" d="M188,-248.5C188,-248.5 408,-248.5 408,-248.5 414,-248.5 420,-254.5 420,-260.5 420,-260.5 420,-327.5 420,-327.5 420,-333.5 414,-339.5 408,-339.5 408,-339.5 188,-339.5 188,-339.5 182,-339.5 176,-333.5 176,-327.5 176,-327.5 176,-260.5 176,-260.5 176,-254.5 182,-248.5 188,-248.5"/>
<text text-anchor="middle" x="298" y="-324.3" font-family="Times,serif" font-size="14.00">Category</text>
<polyline fill="none" stroke="black" points="176,-316.5 420,-316.5 "/>
<text text-anchor="start" x="184" y="-301.3" font-family="Times,serif" font-size="14.00">id :integer</text>
<text text-anchor="start" x="184" y="-286.3" font-family="Times,serif" font-size="14.00">name :character varying</text>
<text text-anchor="start" x="184" y="-271.3" font-family="Times,serif" font-size="14.00">created_at :timestamp without time zone</text>
<text text-anchor="start" x="184" y="-256.3" font-family="Times,serif" font-size="14.00">updated_at :timestamp without time zone</text>
</g>
<!-- Product -->
<g id="node7" class="node"><title>Product</title>
<path fill="none" stroke="black" d="M319,-0.5C319,-0.5 539,-0.5 539,-0.5 545,-0.5 551,-6.5 551,-12.5 551,-12.5 551,-169.5 551,-169.5 551,-175.5 545,-181.5 539,-181.5 539,-181.5 319,-181.5 319,-181.5 313,-181.5 307,-175.5 307,-169.5 307,-169.5 307,-12.5 307,-12.5 307,-6.5 313,-0.5 319,-0.5"/>
<text text-anchor="middle" x="429" y="-166.3" font-family="Times,serif" font-size="14.00">Product</text>
<polyline fill="none" stroke="black" points="307,-158.5 551,-158.5 "/>
<text text-anchor="start" x="315" y="-143.3" font-family="Times,serif" font-size="14.00">id :integer</text>
<text text-anchor="start" x="315" y="-128.3" font-family="Times,serif" font-size="14.00">name :character varying</text>
<text text-anchor="start" x="315" y="-113.3" font-family="Times,serif" font-size="14.00">description :character varying</text>
<text text-anchor="start" x="315" y="-98.3" font-family="Times,serif" font-size="14.00">price :integer</text>
<text text-anchor="start" x="315" y="-83.3" font-family="Times,serif" font-size="14.00">highlighted :boolean</text>
<text text-anchor="start" x="315" y="-68.3" font-family="Times,serif" font-size="14.00">business_id :integer</text>
<text text-anchor="start" x="315" y="-53.3" font-family="Times,serif" font-size="14.00">created_at :timestamp without time zone</text>
<text text-anchor="start" x="315" y="-38.3" font-family="Times,serif" font-size="14.00">updated_at :timestamp without time zone</text>
<text text-anchor="start" x="315" y="-23.3" font-family="Times,serif" font-size="14.00">category_id :integer</text>
<text text-anchor="start" x="315" y="-8.3" font-family="Times,serif" font-size="14.00">photo :character varying</text>
</g>
<!-- Category&#45;&gt;Product -->
<g id="edge1" class="edge"><title>Category&#45;&gt;Product</title>
<path fill="none" stroke="#6bc91b" d="M331.685,-241.315C341.859,-225.706 353.384,-208.021 364.854,-190.422"/>
<ellipse fill="none" stroke="#6bc91b" cx="329.257" cy="-245.04" rx="4.00002" ry="4.00002"/>
<polygon fill="#6bc91b" stroke="#6bc91b" points="365.014,-190.177 374.244,-184.256 367.744,-185.988 370.474,-181.799 370.474,-181.799 370.474,-181.799 367.744,-185.988 366.704,-179.342 365.014,-190.177 365.014,-190.177"/>
</g>
<!-- Business -->
<g id="node4" class="node"><title>Business</title>
<path fill="none" stroke="black" d="M450,-218.5C450,-218.5 670,-218.5 670,-218.5 676,-218.5 682,-224.5 682,-230.5 682,-230.5 682,-357.5 682,-357.5 682,-363.5 676,-369.5 670,-369.5 670,-369.5 450,-369.5 450,-369.5 444,-369.5 438,-363.5 438,-357.5 438,-357.5 438,-230.5 438,-230.5 438,-224.5 444,-218.5 450,-218.5"/>
<text text-anchor="middle" x="560" y="-354.3" font-family="Times,serif" font-size="14.00">Business</text>
<polyline fill="none" stroke="black" points="438,-346.5 682,-346.5 "/>
<text text-anchor="start" x="446" y="-331.3" font-family="Times,serif" font-size="14.00">id :integer</text>
<text text-anchor="start" x="446" y="-316.3" font-family="Times,serif" font-size="14.00">name :character varying</text>
<text text-anchor="start" x="446" y="-301.3" font-family="Times,serif" font-size="14.00">description :character varying</text>
<text text-anchor="start" x="446" y="-286.3" font-family="Times,serif" font-size="14.00">email :character varying</text>
<text text-anchor="start" x="446" y="-271.3" font-family="Times,serif" font-size="14.00">created_at :timestamp without time zone</text>
<text text-anchor="start" x="446" y="-256.3" font-family="Times,serif" font-size="14.00">updated_at :timestamp without time zone</text>
<text text-anchor="start" x="446" y="-241.3" font-family="Times,serif" font-size="14.00">user_id :integer</text>
<text text-anchor="start" x="446" y="-226.3" font-family="Times,serif" font-size="14.00">logo :character varying</text>
</g>
<!-- Business&#45;&gt;Product -->
<g id="edge2" class="edge"><title>Business&#45;&gt;Product</title>
<path fill="none" stroke="#9f60ea" d="M506.991,-211.666C502.376,-204.585 497.675,-197.372 492.985,-190.175"/>
<ellipse fill="none" stroke="#9f60ea" cx="509.223" cy="-215.09" rx="4.00002" ry="4.00002"/>
<polygon fill="#9f60ea" stroke="#9f60ea" points="492.949,-190.12 491.259,-179.285 490.219,-185.931 487.489,-181.742 487.489,-181.742 487.489,-181.742 490.219,-185.931 483.719,-184.199 492.949,-190.12 492.949,-190.12"/>
</g>
<!-- User -->
<g id="node5" class="node"><title>User</title>
<path fill="none" stroke="black" d="M415.5,-406.5C415.5,-406.5 704.5,-406.5 704.5,-406.5 710.5,-406.5 716.5,-412.5 716.5,-418.5 716.5,-418.5 716.5,-665.5 716.5,-665.5 716.5,-671.5 710.5,-677.5 704.5,-677.5 704.5,-677.5 415.5,-677.5 415.5,-677.5 409.5,-677.5 403.5,-671.5 403.5,-665.5 403.5,-665.5 403.5,-418.5 403.5,-418.5 403.5,-412.5 409.5,-406.5 415.5,-406.5"/>
<text text-anchor="middle" x="560" y="-662.3" font-family="Times,serif" font-size="14.00">User</text>
<polyline fill="none" stroke="black" points="403.5,-654.5 716.5,-654.5 "/>
<text text-anchor="start" x="411.5" y="-639.3" font-family="Times,serif" font-size="14.00">id :integer</text>
<text text-anchor="start" x="411.5" y="-624.3" font-family="Times,serif" font-size="14.00">email :character varying</text>
<text text-anchor="start" x="411.5" y="-609.3" font-family="Times,serif" font-size="14.00">encrypted_password :character varying</text>
<text text-anchor="start" x="411.5" y="-594.3" font-family="Times,serif" font-size="14.00">reset_password_token :character varying</text>
<text text-anchor="start" x="411.5" y="-579.3" font-family="Times,serif" font-size="14.00">reset_password_sent_at :timestamp without time zone</text>
<text text-anchor="start" x="411.5" y="-564.3" font-family="Times,serif" font-size="14.00">remember_created_at :timestamp without time zone</text>
<text text-anchor="start" x="411.5" y="-549.3" font-family="Times,serif" font-size="14.00">sign_in_count :integer</text>
<text text-anchor="start" x="411.5" y="-534.3" font-family="Times,serif" font-size="14.00">current_sign_in_at :timestamp without time zone</text>
<text text-anchor="start" x="411.5" y="-519.3" font-family="Times,serif" font-size="14.00">last_sign_in_at :timestamp without time zone</text>
<text text-anchor="start" x="411.5" y="-504.3" font-family="Times,serif" font-size="14.00">current_sign_in_ip :inet</text>
<text text-anchor="start" x="411.5" y="-489.3" font-family="Times,serif" font-size="14.00">last_sign_in_ip :inet</text>
<text text-anchor="start" x="411.5" y="-474.3" font-family="Times,serif" font-size="14.00">created_at :timestamp without time zone</text>
<text text-anchor="start" x="411.5" y="-459.3" font-family="Times,serif" font-size="14.00">updated_at :timestamp without time zone</text>
<text text-anchor="start" x="411.5" y="-444.3" font-family="Times,serif" font-size="14.00">name :character varying</text>
<text text-anchor="start" x="411.5" y="-429.3" font-family="Times,serif" font-size="14.00">role :integer</text>
<text text-anchor="start" x="411.5" y="-414.3" font-family="Times,serif" font-size="14.00">profile :character varying</text>
</g>
<!-- User&#45;&gt;Business -->
<g id="edge3" class="edge"><title>User&#45;&gt;Business</title>
<path fill="none" stroke="#a35b2b" d="M560,-398.268C560,-391.42 560,-384.655 560,-378.062"/>
<ellipse fill="none" stroke="#a35b2b" cx="560" cy="-402.484" rx="4" ry="4"/>
<ellipse fill="#a35b2b" stroke="#a35b2b" cx="560" cy="-373.81" rx="4" ry="4"/>
</g>
<!-- Ability -->
<g id="node6" class="node"><title>Ability</title>
<polygon fill="none" stroke="black" points="734.5,-519 734.5,-565 789.5,-565 789.5,-519 734.5,-519"/>
<text text-anchor="middle" x="762" y="-549.8" font-family="Times,serif" font-size="14.00">Ability</text>
<polyline fill="none" stroke="black" points="734.5,-542 789.5,-542 "/>
<text text-anchor="middle" x="762" y="-526.8" font-family="Times,serif" font-size="14.00"> </text>
</g>
</g>
</svg>
