<?xml version="1.0" encoding="UTF-8" standalone="no"?>
<!DOCTYPE svg PUBLIC "-//W3C//DTD SVG 1.1//EN"
 "http://www.w3.org/Graphics/SVG/1.1/DTD/svg11.dtd">
<!-- Generated by graphviz version 2.36.0 (20140111.2315)
 -->
<!-- Title: models_diagram Pages: 1 -->
<svg width="797pt" height="628pt"
 viewBox="0.00 0.00 797.00 628.00" xmlns="http://www.w3.org/2000/svg" xmlns:xlink="http://www.w3.org/1999/xlink">
<g id="graph0" class="graph" transform="scale(1 1) rotate(0) translate(4 624)">
<title>models_diagram</title>
<polygon fill="none" stroke="none" points="-4,4 -4,-624 793,-624 793,4 -4,4"/>
<!-- _diagram_info -->
<g id="node1" class="node"><title>_diagram_info</title>
<text text-anchor="start" x="7" y="-523.6" font-family="Times,serif" font-size="13.00">Models diagram</text>
<text text-anchor="start" x="7" y="-509.6" font-family="Times,serif" font-size="13.00">Date: Sep 07 2016 &#45; 17:35</text>
<text text-anchor="start" x="7" y="-495.6" font-family="Times,serif" font-size="13.00">Migration version: 20160907202830</text>
<text text-anchor="start" x="7" y="-481.6" font-family="Times,serif" font-size="13.00">Generated by RailRoady 1.5.1</text>
<text text-anchor="start" x="7" y="-467.6" font-family="Times,serif" font-size="13.00">http://railroady.prestonlee.com</text>
</g>
<!-- ApplicationRecord -->
<g id="node2" class="node"><title>ApplicationRecord</title>
<ellipse fill="none" stroke="black" cx="308" cy="-499" rx="77.0154" ry="18"/>
<text text-anchor="middle" x="308" y="-495.3" font-family="Times,serif" font-size="14.00">ApplicationRecord</text>
</g>
<!-- Category -->
<g id="node3" class="node"><title>Category</title>
<path fill="none" stroke="black" d="M188,-227.5C188,-227.5 408,-227.5 408,-227.5 414,-227.5 420,-233.5 420,-239.5 420,-239.5 420,-306.5 420,-306.5 420,-312.5 414,-318.5 408,-318.5 408,-318.5 188,-318.5 188,-318.5 182,-318.5 176,-312.5 176,-306.5 176,-306.5 176,-239.5 176,-239.5 176,-233.5 182,-227.5 188,-227.5"/>
<text text-anchor="middle" x="298" y="-303.3" font-family="Times,serif" font-size="14.00">Category</text>
<polyline fill="none" stroke="black" points="176,-295.5 420,-295.5 "/>
<text text-anchor="start" x="184" y="-280.3" font-family="Times,serif" font-size="14.00">id :integer</text>
<text text-anchor="start" x="184" y="-265.3" font-family="Times,serif" font-size="14.00">name :character varying</text>
<text text-anchor="start" x="184" y="-250.3" font-family="Times,serif" font-size="14.00">created_at :timestamp without time zone</text>
<text text-anchor="start" x="184" y="-235.3" font-family="Times,serif" font-size="14.00">updated_at :timestamp without time zone</text>
</g>
<!-- Product -->
<g id="node7" class="node"><title>Product</title>
<path fill="none" stroke="black" d="M319,-1C319,-1 539,-1 539,-1 545,-1 551,-7 551,-13 551,-13 551,-155 551,-155 551,-161 545,-167 539,-167 539,-167 319,-167 319,-167 313,-167 307,-161 307,-155 307,-155 307,-13 307,-13 307,-7 313,-1 319,-1"/>
<text text-anchor="middle" x="429" y="-151.8" font-family="Times,serif" font-size="14.00">Product</text>
<polyline fill="none" stroke="black" points="307,-144 551,-144 "/>
<text text-anchor="start" x="315" y="-128.8" font-family="Times,serif" font-size="14.00">id :integer</text>
<text text-anchor="start" x="315" y="-113.8" font-family="Times,serif" font-size="14.00">name :character varying</text>
<text text-anchor="start" x="315" y="-98.8" font-family="Times,serif" font-size="14.00">description :character varying</text>
<text text-anchor="start" x="315" y="-83.8" font-family="Times,serif" font-size="14.00">price :integer</text>
<text text-anchor="start" x="315" y="-68.8" font-family="Times,serif" font-size="14.00">highlighted :boolean</text>
<text text-anchor="start" x="315" y="-53.8" font-family="Times,serif" font-size="14.00">business_id :integer</text>
<text text-anchor="start" x="315" y="-38.8" font-family="Times,serif" font-size="14.00">created_at :timestamp without time zone</text>
<text text-anchor="start" x="315" y="-23.8" font-family="Times,serif" font-size="14.00">updated_at :timestamp without time zone</text>
<text text-anchor="start" x="315" y="-8.8" font-family="Times,serif" font-size="14.00">category_id :integer</text>
</g>
<!-- Category&#45;&gt;Product -->
<g id="edge1" class="edge"><title>Category&#45;&gt;Product</title>
<path fill="none" stroke="#e1b4c4" d="M334.223,-220.293C343.956,-206.398 354.776,-190.954 365.523,-175.613"/>
<ellipse fill="none" stroke="#e1b4c4" cx="331.673" cy="-223.933" rx="4.00002" ry="4.00002"/>
<polygon fill="#e1b4c4" stroke="#e1b4c4" points="365.741,-175.302 375.164,-169.693 368.609,-171.206 371.478,-167.111 371.478,-167.111 371.478,-167.111 368.609,-171.206 367.793,-164.529 365.741,-175.302 365.741,-175.302"/>
</g>
<!-- Business -->
<g id="node4" class="node"><title>Business</title>
<path fill="none" stroke="black" d="M450,-205C450,-205 670,-205 670,-205 676,-205 682,-211 682,-217 682,-217 682,-329 682,-329 682,-335 676,-341 670,-341 670,-341 450,-341 450,-341 444,-341 438,-335 438,-329 438,-329 438,-217 438,-217 438,-211 444,-205 450,-205"/>
<text text-anchor="middle" x="560" y="-325.8" font-family="Times,serif" font-size="14.00">Business</text>
<polyline fill="none" stroke="black" points="438,-318 682,-318 "/>
<text text-anchor="start" x="446" y="-302.8" font-family="Times,serif" font-size="14.00">id :integer</text>
<text text-anchor="start" x="446" y="-287.8" font-family="Times,serif" font-size="14.00">name :character varying</text>
<text text-anchor="start" x="446" y="-272.8" font-family="Times,serif" font-size="14.00">description :character varying</text>
<text text-anchor="start" x="446" y="-257.8" font-family="Times,serif" font-size="14.00">email :character varying</text>
<text text-anchor="start" x="446" y="-242.8" font-family="Times,serif" font-size="14.00">created_at :timestamp without time zone</text>
<text text-anchor="start" x="446" y="-227.8" font-family="Times,serif" font-size="14.00">updated_at :timestamp without time zone</text>
<text text-anchor="start" x="446" y="-212.8" font-family="Times,serif" font-size="14.00">user_id :integer</text>
</g>
<!-- Business&#45;&gt;Product -->
<g id="edge2" class="edge"><title>Business&#45;&gt;Product</title>
<path fill="none" stroke="#d697d4" d="M508.264,-198.148C503.053,-190.71 497.721,-183.097 492.406,-175.511"/>
<ellipse fill="none" stroke="#d697d4" cx="510.596" cy="-201.477" rx="4.00002" ry="4.00002"/>
<polygon fill="#d697d4" stroke="#d697d4" points="492.391,-175.49 490.339,-164.718 489.522,-171.395 486.654,-167.299 486.654,-167.299 486.654,-167.299 489.522,-171.395 482.968,-169.881 492.391,-175.49 492.391,-175.49"/>
</g>
<!-- User -->
<g id="node5" class="node"><title>User</title>
<path fill="none" stroke="black" d="M415.5,-378.5C415.5,-378.5 704.5,-378.5 704.5,-378.5 710.5,-378.5 716.5,-384.5 716.5,-390.5 716.5,-390.5 716.5,-607.5 716.5,-607.5 716.5,-613.5 710.5,-619.5 704.5,-619.5 704.5,-619.5 415.5,-619.5 415.5,-619.5 409.5,-619.5 403.5,-613.5 403.5,-607.5 403.5,-607.5 403.5,-390.5 403.5,-390.5 403.5,-384.5 409.5,-378.5 415.5,-378.5"/>
<text text-anchor="middle" x="560" y="-604.3" font-family="Times,serif" font-size="14.00">User</text>
<polyline fill="none" stroke="black" points="403.5,-596.5 716.5,-596.5 "/>
<text text-anchor="start" x="411.5" y="-581.3" font-family="Times,serif" font-size="14.00">id :integer</text>
<text text-anchor="start" x="411.5" y="-566.3" font-family="Times,serif" font-size="14.00">email :character varying</text>
<text text-anchor="start" x="411.5" y="-551.3" font-family="Times,serif" font-size="14.00">encrypted_password :character varying</text>
<text text-anchor="start" x="411.5" y="-536.3" font-family="Times,serif" font-size="14.00">reset_password_token :character varying</text>
<text text-anchor="start" x="411.5" y="-521.3" font-family="Times,serif" font-size="14.00">reset_password_sent_at :timestamp without time zone</text>
<text text-anchor="start" x="411.5" y="-506.3" font-family="Times,serif" font-size="14.00">remember_created_at :timestamp without time zone</text>
<text text-anchor="start" x="411.5" y="-491.3" font-family="Times,serif" font-size="14.00">sign_in_count :integer</text>
<text text-anchor="start" x="411.5" y="-476.3" font-family="Times,serif" font-size="14.00">current_sign_in_at :timestamp without time zone</text>
<text text-anchor="start" x="411.5" y="-461.3" font-family="Times,serif" font-size="14.00">last_sign_in_at :timestamp without time zone</text>
<text text-anchor="start" x="411.5" y="-446.3" font-family="Times,serif" font-size="14.00">current_sign_in_ip :inet</text>
<text text-anchor="start" x="411.5" y="-431.3" font-family="Times,serif" font-size="14.00">last_sign_in_ip :inet</text>
<text text-anchor="start" x="411.5" y="-416.3" font-family="Times,serif" font-size="14.00">created_at :timestamp without time zone</text>
<text text-anchor="start" x="411.5" y="-401.3" font-family="Times,serif" font-size="14.00">updated_at :timestamp without time zone</text>
<text text-anchor="start" x="411.5" y="-386.3" font-family="Times,serif" font-size="14.00">name :character varying</text>
</g>
<!-- User&#45;&gt;Business -->
<g id="edge3" class="edge"><title>User&#45;&gt;Business</title>
<path fill="none" stroke="#6b60fa" d="M560,-370.368C560,-363.144 560,-356.009 560,-349.086"/>
<ellipse fill="none" stroke="#6b60fa" cx="560" cy="-374.458" rx="4" ry="4"/>
<ellipse fill="#6b60fa" stroke="#6b60fa" cx="560" cy="-345.063" rx="4" ry="4"/>
</g>
<!-- Ability -->
<g id="node6" class="node"><title>Ability</title>
<polygon fill="none" stroke="black" points="734.5,-476 734.5,-522 789.5,-522 789.5,-476 734.5,-476"/>
<text text-anchor="middle" x="762" y="-506.8" font-family="Times,serif" font-size="14.00">Ability</text>
<polyline fill="none" stroke="black" points="734.5,-499 789.5,-499 "/>
<text text-anchor="middle" x="762" y="-483.8" font-family="Times,serif" font-size="14.00"> </text>
</g>
</g>
</svg>
