<?xml version="1.0" encoding="UTF-8" standalone="no"?>
<!DOCTYPE svg PUBLIC "-//W3C//DTD SVG 1.1//EN"
 "http://www.w3.org/Graphics/SVG/1.1/DTD/svg11.dtd">
<!-- Generated by graphviz version 2.36.0 (20140111.2315)
 -->
<!-- Title: models_diagram Pages: 1 -->
<svg width="539pt" height="230pt"
 viewBox="0.00 0.00 539.00 230.00" xmlns="http://www.w3.org/2000/svg" xmlns:xlink="http://www.w3.org/1999/xlink">
<g id="graph0" class="graph" transform="scale(1 1) rotate(0) translate(4 226)">
<title>models_diagram</title>
<polygon fill="none" stroke="none" points="-4,4 -4,-226 535,-226 535,4 -4,4"/>
<!-- _diagram_info -->
<g id="node1" class="node"><title>_diagram_info</title>
<text text-anchor="start" x="7" y="-207.6" font-family="Times,serif" font-size="13.00">Models diagram</text>
<text text-anchor="start" x="7" y="-193.6" font-family="Times,serif" font-size="13.00">Date: Sep 07 2016 &#45; 17:35</text>
<text text-anchor="start" x="7" y="-179.6" font-family="Times,serif" font-size="13.00">Migration version: 20160907202830</text>
<text text-anchor="start" x="7" y="-165.6" font-family="Times,serif" font-size="13.00">Generated by RailRoady 1.5.1</text>
<text text-anchor="start" x="7" y="-151.6" font-family="Times,serif" font-size="13.00">http://railroady.prestonlee.com</text>
</g>
<!-- ApplicationRecord -->
<g id="node2" class="node"><title>ApplicationRecord</title>
<ellipse fill="none" stroke="black" cx="308" cy="-183" rx="77.0154" ry="18"/>
<text text-anchor="middle" x="308" y="-179.3" font-family="Times,serif" font-size="14.00">ApplicationRecord</text>
</g>
<!-- Category -->
<g id="node3" class="node"><title>Category</title>
<ellipse fill="none" stroke="black" cx="328" cy="-90" rx="42.3456" ry="18"/>
<text text-anchor="middle" x="328" y="-86.3" font-family="Times,serif" font-size="14.00">Category</text>
</g>
<!-- Product -->
<g id="node7" class="node"><title>Product</title>
<ellipse fill="none" stroke="black" cx="379" cy="-18" rx="38.0212" ry="18"/>
<text text-anchor="middle" x="379" y="-14.3" font-family="Times,serif" font-size="14.00">Product</text>
</g>
<!-- Category&#45;&gt;Product -->
<g id="edge1" class="edge"><title>Category&#45;&gt;Product</title>
<path fill="none" stroke="#38cf1d" d="M344.894,-65.8123C350.094,-58.6754 355.834,-50.7961 361.099,-43.5697"/>
<ellipse fill="none" stroke="#38cf1d" cx="342.442" cy="-69.178" rx="4.00002" ry="4.00002"/>
<polygon fill="#38cf1d" stroke="#38cf1d" points="361.112,-43.5523 370.638,-38.1198 364.056,-39.5111 367,-35.4699 367,-35.4699 367,-35.4699 364.056,-39.5111 363.363,-32.8201 361.112,-43.5523 361.112,-43.5523"/>
</g>
<!-- Business -->
<g id="node4" class="node"><title>Business</title>
<ellipse fill="none" stroke="black" cx="431" cy="-90" rx="42.3701" ry="18"/>
<text text-anchor="middle" x="431" y="-86.3" font-family="Times,serif" font-size="14.00">Business</text>
</g>
<!-- Business&#45;&gt;Product -->
<g id="edge2" class="edge"><title>Business&#45;&gt;Product</title>
<path fill="none" stroke="#bfd379" d="M413.775,-65.8123C408.473,-58.6754 402.62,-50.7961 397.252,-43.5697"/>
<ellipse fill="none" stroke="#bfd379" cx="416.291" cy="-69.2" rx="4.00002" ry="4.00002"/>
<polygon fill="#bfd379" stroke="#bfd379" points="397.198,-43.4974 394.847,-32.7865 394.216,-39.4837 391.235,-35.4699 391.235,-35.4699 391.235,-35.4699 394.216,-39.4837 387.622,-38.1534 397.198,-43.4974 397.198,-43.4974"/>
</g>
<!-- User -->
<g id="node5" class="node"><title>User</title>
<ellipse fill="none" stroke="black" cx="431" cy="-183" rx="26.949" ry="18"/>
<text text-anchor="middle" x="431" y="-179.3" font-family="Times,serif" font-size="14.00">User</text>
</g>
<!-- User&#45;&gt;Business -->
<g id="edge3" class="edge"><title>User&#45;&gt;Business</title>
<path fill="none" stroke="#f6e77a" d="M431,-156.729C431,-144.118 431,-128.905 431,-116.292"/>
<ellipse fill="none" stroke="#f6e77a" cx="431" cy="-160.884" rx="4" ry="4"/>
<ellipse fill="#f6e77a" stroke="#f6e77a" cx="431" cy="-112.04" rx="4" ry="4"/>
</g>
<!-- Ability -->
<g id="node6" class="node"><title>Ability</title>
<polygon fill="none" stroke="black" points="531.25,-201 476.75,-201 476.75,-165 531.25,-165 531.25,-201"/>
<text text-anchor="middle" x="504" y="-179.3" font-family="Times,serif" font-size="14.00">Ability</text>
</g>
</g>
</svg>
